<svg width="1400" height="780" viewBox="0 0 1400 780" fill="none" xmlns="http://www.w3.org/2000/svg">
  <defs>
    <linearGradient id="bg" x1="92" y1="58" x2="1303" y2="734" gradientUnits="userSpaceOnUse">
      <stop stop-color="#04151A"/>
      <stop offset="0.52" stop-color="#0B1021"/>
      <stop offset="1" stop-color="#1C0E21"/>
    </linearGradient>
    <radialGradient id="glowA" cx="0" cy="0" r="1" gradientUnits="userSpaceOnUse" gradientTransform="translate(325 222) rotate(39.6) scale(417 302)">
      <stop stop-color="#2BFFB7" stop-opacity="0.55"/>
      <stop offset="1" stop-color="#2BFFB7" stop-opacity="0"/>
    </radialGradient>
    <radialGradient id="glowB" cx="0" cy="0" r="1" gradientUnits="userSpaceOnUse" gradientTransform="translate(1034 180) rotate(140.8) scale(385 261)">
      <stop stop-color="#6DA7FF" stop-opacity="0.42"/>
      <stop offset="1" stop-color="#6DA7FF" stop-opacity="0"/>
    </radialGradient>
    <linearGradient id="lineA" x1="258" y1="0" x2="258" y2="116" gradientUnits="userSpaceOnUse">
      <stop stop-color="#9FFFF0"/>
      <stop offset="1" stop-color="#23D89D"/>
    </linearGradient>
    <linearGradient id="lineB" x1="0" y1="0" x2="203" y2="0" gradientUnits="userSpaceOnUse">
      <stop stop-color="#7CC4FF"/>
      <stop offset="1" stop-color="#B589FF"/>
    </linearGradient>
    <filter id="blur" x="0" y="0" width="1400" height="780" filterUnits="userSpaceOnUse" color-interpolation-filters="sRGB">
      <feGaussianBlur stdDeviation="42"/>
    </filter>
  </defs>

  <rect width="1400" height="780" rx="36" fill="#050910"/>
  <rect x="22" y="22" width="1356" height="736" rx="28" fill="url(#bg)"/>
  <g filter="url(#blur)">
    <circle cx="327" cy="223" r="178" fill="url(#glowA)"/>
    <circle cx="1041" cy="174" r="166" fill="url(#glowB)"/>
  </g>

  <path d="M138 603C257 560 314 576 405 498C492 424 552 352 640 358C748 366 778 495 894 494C1002 492 1045 383 1133 340C1204 305 1266 308 1319 319" stroke="#87AAFF" stroke-opacity="0.34" stroke-width="2"/>
  <path d="M130 633C224 648 283 619 366 574C449 529 504 435 600 428C704 421 763 564 876 563C982 563 1036 438 1136 420C1194 409 1249 414 1313 443" stroke="#3FFFD2" stroke-opacity="0.24" stroke-width="2"/>

  <g opacity="0.92">
    <circle cx="108" cy="108" r="5" fill="#2BFFB7"/>
    <text x="128" y="114" fill="#DFF8F3" font-size="22" font-family="Georgia, 'Times New Roman', serif" letter-spacing="3">STELLA / LOCAL-FIRST HEALTH INTELLIGENCE</text>
  </g>

  <text x="106" y="246" fill="#F5F7FF" font-size="122" font-family="Georgia, 'Times New Roman', serif" font-weight="700" letter-spacing="-5">STELLA</text>
  <text x="113" y="302" fill="#8EA5B5" font-size="28" font-family="'Courier New', Courier, monospace" letter-spacing="2">Import the body. Keep the machine on your desk.</text>

  <text x="108" y="394" fill="#DDE8EF" font-size="30" font-family="Arial, Helvetica, sans-serif">FastAPI backend. React + Vite frontend. DuckDB storage.</text>
  <text x="108" y="434" fill="#DDE8EF" font-size="30" font-family="Arial, Helvetica, sans-serif">Optional Ollama summaries. Metrics-only fallback when AI is down.</text>

  <g>
    <rect x="106" y="500" width="230" height="60" rx="30" fill="#E8F6F2"/>
    <text x="221" y="539" fill="#081217" font-size="24" font-family="Arial, Helvetica, sans-serif" font-weight="700" text-anchor="middle">Docker-first launch</text>
    <rect x="354" y="500" width="204" height="60" rx="30" fill="none" stroke="#66839A" stroke-width="2"/>
    <text x="456" y="539" fill="#EAF2FF" font-size="24" font-family="Arial, Helvetica, sans-serif" font-weight="700" text-anchor="middle">Local dev mode</text>
  </g>

  <g>
    <rect x="855" y="104" width="435" height="208" rx="28" fill="#070B16" fill-opacity="0.72" stroke="#7E96BE" stroke-opacity="0.34"/>
    <text x="889" y="146" fill="#F6F7FD" font-size="22" font-family="'Courier New', Courier, monospace">boot.log</text>
    <text x="889" y="184" fill="#87FFD8" font-size="19" font-family="'Courier New', Courier, monospace">[ready] frontend reachable on :5173</text>
    <text x="889" y="216" fill="#87FFD8" font-size="19" font-family="'Courier New', Courier, monospace">[ready] backend reachable on :8000</text>
    <text x="889" y="248" fill="#7CC4FF" font-size="19" font-family="'Courier New', Courier, monospace">[info] llm provider: ollama</text>
    <text x="889" y="280" fill="#F7C97A" font-size="19" font-family="'Courier New', Courier, monospace">[mode] continue even if model is unavailable</text>
  </g>

  <g>
    <rect x="826" y="362" width="470" height="312" rx="30" fill="#070C14" fill-opacity="0.74" stroke="#7D98C5" stroke-opacity="0.32"/>
    <text x="860" y="407" fill="#EEF2F8" font-size="30" font-family="Georgia, 'Times New Roman', serif">Signal Stack</text>
    <line x1="860" y1="437" x2="1080" y2="437" stroke="url(#lineB)" stroke-width="3"/>

    <g transform="translate(860 470)">
      <rect width="116" height="116" rx="22" fill="#2BFFB7" fill-opacity="0.08" stroke="#2BFFB7" stroke-opacity="0.45"/>
      <path d="M24 77H45L59 40L79 90L92 61" stroke="url(#lineA)" stroke-width="8" stroke-linecap="round" stroke-linejoin="round"/>
      <text x="58" y="103" fill="#D8E7E5" font-size="15" font-family="Arial, Helvetica, sans-serif" text-anchor="middle">imports</text>
    </g>

    <g transform="translate(997 470)">
      <rect width="116" height="116" rx="22" fill="#7CC4FF" fill-opacity="0.08" stroke="#7CC4FF" stroke-opacity="0.45"/>
      <ellipse cx="58" cy="42" rx="28" ry="14" stroke="#7CC4FF" stroke-width="6"/>
      <path d="M30 42V72C30 79 42 85 58 85C74 85 86 79 86 72V42" stroke="#7CC4FF" stroke-width="6"/>
      <text x="58" y="103" fill="#D8E7E5" font-size="15" font-family="Arial, Helvetica, sans-serif" text-anchor="middle">duckdb</text>
    </g>

    <g transform="translate(1134 470)">
      <rect width="116" height="116" rx="22" fill="#B589FF" fill-opacity="0.08" stroke="#B589FF" stroke-opacity="0.45"/>
      <path d="M32 36H84V52H32V36ZM32 60H84V76H32V60Z" fill="#B589FF"/>
      <path d="M40 90C48 78 68 78 76 90" stroke="#B589FF" stroke-width="6" stroke-linecap="round"/>
      <text x="58" y="103" fill="#D8E7E5" font-size="15" font-family="Arial, Helvetica, sans-serif" text-anchor="middle">reports</text>
    </g>

    <text x="861" y="631" fill="#8FA5B6" font-size="21" font-family="Arial, Helvetica, sans-serif">Wearables and exports in. Correlations, reports, and chat out.</text>
  </g>
</svg>
